<svg width="800" height="900" viewBox="0 0 800 900" fill="none" xmlns="http://www.w3.org/2000/svg">
  <rect width="800" height="900" rx="40" fill="#F6F9FF"/>
  <rect x="60" y="60" width="680" height="780" rx="32" fill="url(#bg)"/>
  <circle cx="400" cy="286" r="110" fill="#F1C6B2"/>
  <path d="M284 272C284 208.487 335.487 157 399 157C462.513 157 514 208.487 514 272V342H284V272Z" fill="#20335E"/>
  <path d="M250 698C250 574.84 349.84 475 473 475H327C450.16 475 550 574.84 550 698V758H250V698Z" fill="#273C75"/>
  <path d="M300 468H500V758H300V468Z" fill="#FFFFFF"/>
  <text x="96" y="140" fill="white" font-family="Segoe UI, Arial" font-size="28" font-weight="700">Secretariat</text>
  <text x="96" y="786" fill="white" font-family="Georgia, serif" font-size="40" font-weight="700">Office Management</text>
  <defs>
    <linearGradient id="bg" x1="86" y1="86" x2="716" y2="784" gradientUnits="userSpaceOnUse">
      <stop stop-color="#273C75"/>
      <stop offset="1" stop-color="#8EA3E3"/>
    </linearGradient>
  </defs>
</svg>
